# File created by Blade
# Date/Time:  Tue Sep 30 19:28:31 2014
#---------------------------------------------------------
:version 1.10
:name HOM
:units
  mass 1.0
  length 1.000000
  angle deg
:documentation
     Acclaim Skeleton File
:root
   axis xyz
   order TX TY TZ RX RY RZ
   position 0.000000 0.000000 0.000000
   orientation 0 0 0
:bonedata
   begin
      id 1
      name RightUpLeg_dum
      direction -1.000000 0.000000 0.000000
      length 3.766986
      axis 0.0 0.0 0.0 xyz
   end
   begin
      id 2
      name LeftUpLeg_dum
      direction 1.000000 0.000000 0.000000
      length 3.766986
      axis 0.0 0.0 0.0 xyz
   end
   begin
      id 3
      name Spine_dum
      direction 0.000000 1.000000 0.000000
      length 7.779697
      axis 0.0 0.0 0.0 xyz
   end
   begin
      id 4
      name RightUpLeg
      direction 0.000000 -1.000000 0.000000
      length 18.017682
      axis 0.0 0.0 0.0 xyz
      dof rx ry rz
   end
   begin
      id 5
      name RightLeg
      direction 0.000000 -1.000000 0.000000
      length 16.881075
      axis 0.0 0.0 0.0 xyz
      dof rx ry rz
   end
   begin
      id 6
      name RightFoot
      direction 0.000000 -0.258819 0.965926
      length 5.770812
      axis 15.0 0.0 0.0 xyz
      dof rx ry rz
   end
   begin
      id 7
      name RightToeBase
      direction 0.000000 0.000000 1.000000
      length 2.952750
      axis 0.0 0.0 0.0 xyz
      dof rx ry rz
   end
   begin
      id 8
      name LeftUpLeg
      direction 0.000000 -1.000000 0.000000
      length 18.017682
      axis 0.0 0.0 0.0 xyz
      dof rx ry rz
   end
   begin
      id 9
      name LeftLeg
      direction 0.000000 -1.000000 0.000000
      length 16.881075
      axis 0.0 0.0 0.0 xyz
      dof rx ry rz
   end
   begin
      id 10
      name LeftFoot
      direction 0.000000 -0.258819 0.965926
      length 5.770812
      axis 15.0 0.0 0.0 xyz
      dof rx ry rz
   end
   begin
      id 11
      name LeftToeBase
      direction 0.000000 0.000000 1.000000
      length 2.952750
      axis 0.0 0.0 0.0 xyz
      dof rx ry rz
   end
   begin
      id 12
      name Spine
      direction 0.000000 1.000000 0.000000
      length 0.000000
      axis 0.0 0.0 0.0 xyz
      dof rx ry rz
   end
   begin
      id 13
      name Spine_dum1
      direction 0.000000 1.000000 0.000000
      length 10.941760
      axis 0.0 0.0 0.0 xyz
   end
   begin
      id 14
      name Spine_dum2
      direction 0.000000 1.000000 0.000000
      length 10.941760
      axis 0.0 0.0 0.0 xyz
   end
   begin
      id 15
      name Spine_dum3
      direction 0.000000 1.000000 0.000000
      length 16.646042
      axis 0.0 0.0 0.0 xyz
   end
   begin
      id 16
      name RightShoulder
      direction -1.000000 0.000000 0.000000
      length 7.708937
      axis 0.0 0.0 90.0 xyz
      dof rx ry rz
   end
   begin
      id 17
      name RightArm
      direction -1.000000 0.000000 0.000000
      length 11.521345
      axis 0.0 0.0 90.0 xyz
      dof rx ry rz
   end
   begin
      id 18
      name RightForeArm
      direction -1.000000 0.000000 0.000000
      length 10.175898
      axis 0.0 0.0 90.0 xyz
      dof ry rz rx
   end
   begin
      id 19
      name RightHand
      direction -1.000000 0.000000 0.000000
      length 0.000000
      axis 0.0 0.0 90.0 xyz
      dof rx ry rz
   end
   begin
      id 20
      name RightHand_dum1
      direction -1.000000 0.000000 0.000000
      length 3.937000
      axis 0.0 0.0 90.0 xyz
   end
   begin
      id 21
      name RightHand_dum2
      direction 0.000000 0.000000 0.000000
      length 0.000000
      axis 0.0 0.0 90.0 xyz
   end
   begin
      id 22
      name RightHandThumb1
      direction 0.000000 0.000000 1.000000
      length 3.937000
      axis 0.0 0.0 90.0 xyz
      dof rx rz ry
   end
   begin
      id 23
      name LeftShoulder
      direction 1.000000 0.000000 0.000000
      length 7.708937
      axis 0.0 0.0 -90.0 xyz
      dof rx ry rz
   end
   begin
      id 24
      name LeftArm
      direction 1.000000 0.000000 0.000000
      length 11.521345
      axis 0.0 0.0 -90.0 xyz
      dof rx ry rz
   end
   begin
      id 25
      name LeftForeArm
      direction 1.000000 0.000000 0.000000
      length 10.175898
      axis 0.0 0.0 -90.0 xyz
      dof ry rz rx
   end
   begin
      id 26
      name LeftHand
      direction 1.000000 0.000000 0.000000
      length 0.000000
      axis 0.0 0.0 -90.0 xyz
      dof rx ry rz
   end
   begin
      id 27
      name LeftHand_dum1
      direction 1.000000 0.000000 0.000000
      length 3.937000
      axis 0.0 0.0 -90.0 xyz
   end
   begin
      id 28
      name LeftHand_dum2
      direction 0.000000 0.000000 0.000000
      length 0.000000
      axis 0.0 0.0 -90.0 xyz
   end
   begin
      id 29
      name LeftHandThumb1
      direction 0.000000 0.000000 1.000000
      length 3.937000
      axis 0.0 0.0 -90.0 xyz
      dof rx rz ry
   end
   begin
      id 30
      name Head
      direction 0.000000 1.000000 0.000000
      length 4.527550
      axis 0.0 0.0 0.0 xyz
      dof rx ry rz
   end
:hierarchy
   begin
      root RightUpLeg_dum LeftUpLeg_dum Spine_dum
      RightUpLeg_dum RightUpLeg
      LeftUpLeg_dum LeftUpLeg
      Spine_dum Spine
      RightUpLeg RightLeg
      RightLeg RightFoot
      RightFoot RightToeBase
      LeftUpLeg LeftLeg
      LeftLeg LeftFoot
      LeftFoot LeftToeBase
      Spine Spine_dum1 Spine_dum2 Spine_dum3
      Spine_dum1 RightShoulder
      Spine_dum2 LeftShoulder
      Spine_dum3 Head
      RightShoulder RightArm
      RightArm RightForeArm
      RightForeArm RightHand
      RightHand RightHand_dum1 RightHand_dum2
      RightHand_dum2 RightHandThumb1
      LeftShoulder LeftArm
      LeftArm LeftForeArm
      LeftForeArm LeftHand
      LeftHand LeftHand_dum1 LeftHand_dum2
      LeftHand_dum2 LeftHandThumb1
   end

# File created by Blade
# Date/Time:  Mon Sep 22 15:39:46 2014
# Frame Rate: 120.000 fps
#------------------------------------------------------
:FULLY-SPECIFIED
:DEGREES
418
root 2.264160 37.012138 2.528936 -2.417449 -3.116153 1.775860
RightUpLeg 10.808397 -6.696756 -4.117154
RightLeg -5.648083 -0.000000 0.000000
RightFoot -12.343251 -13.664991 15.938862
RightToeBase 15.815040 -0.000000 -0.000000
LeftUpLeg 9.172373 0.955689 1.365738
LeftLeg -2.706089 -0.000000 0.000000
LeftFoot -10.355073 14.590889 -17.312535
LeftToeBase 9.711625 -0.000000 -0.000000
Spine 1.558877 21.988934 -0.163772
RightShoulder 13.781272 5.517961 -29.772484
RightArm 80.606840 -0.988513 98.952057
RightForeArm 86.382073 -0.000000 146.737683
RightHand 13.586773 -0.000000 32.733401
RightHandThumb1 -24.326973 -0.000000 -32.862282
LeftShoulder -0.625761 35.254646 3.722816
LeftArm 51.883692 27.112610 -54.417259
LeftForeArm 23.782181 -0.000000 18.290970
LeftHand -13.177832 -0.000000 -8.666798
LeftHandThumb1 -26.253704 0.000000 33.147579
Head -6.430600 10.440044 -23.145210
419
root 2.263084 37.012369 2.528436 -2.412591 -3.069014 1.773293
RightUpLeg 10.800369 -6.677518 -4.105101
RightLeg -5.629468 -0.000000 0.000000
RightFoot -12.361576 -13.729425 15.925951
RightToeBase 15.849357 -0.000000 -0.000000
LeftUpLeg 9.162967 0.934212 1.370792
LeftLeg -2.709770 -0.000000 0.000000
LeftFoot -10.340649 14.575311 -17.296396
LeftToeBase 9.700669 -0.000000 -0.000000
Spine 1.583407 21.917156 -0.188429
RightShoulder 13.795149 5.612338 -29.835375
RightArm 80.540130 -0.750041 99.346325
RightForeArm 86.447572 -0.000000 146.632985
RightHand 13.666417 -0.000000 32.583663
RightHandThumb1 -24.326973 -0.000000 -32.862282
LeftShoulder -0.604309 35.231228 3.737217
LeftArm 51.908746 27.132786 -54.355107
LeftForeArm 23.733442 -0.000000 18.211078
LeftHand -13.121872 -0.000000 -8.711280
LeftHandThumb1 -26.253704 0.000000 33.147579
Head -6.559804 10.338472 -23.156017
420
root 2.262934 37.013038 2.527919 -2.411513 -3.011114 1.773289
RightUpLeg 10.798380 -6.671083 -4.098622
RightLeg -5.610644 -0.000000 0.000000
RightFoot -12.396652 -13.783484 15.943388
RightToeBase 15.847781 -0.000000 -0.000000
LeftUpLeg 9.151322 0.916737 1.373220
LeftLeg -2.707793 -0.000000 0.000000
LeftFoot -10.332036 14.544253 -17.317769
LeftToeBase 9.689808 -0.000000 -0.000000
Spine 1.610992 21.838665 -0.215425
RightShoulder 13.814063 5.777769 -29.914807
RightArm 80.371600 -0.465754 99.754068
RightForeArm 86.536943 -0.000000 146.572639
RightHand 13.541632 -0.000000 32.407521
RightHandThumb1 -24.326973 -0.000000 -32.862282
LeftShoulder -0.589929 35.204993 3.748467
LeftArm 51.916379 27.106347 -54.385952
LeftForeArm 23.801450 0.000000 18.102294
LeftHand -13.144126 -0.000000 -8.783548
LeftHandThumb1 -26.253704 0.000000 33.147579
Head -6.688714 10.241463 -23.178519
421
root 2.263333 37.014692 2.526078 -2.397139 -2.969555 1.768956
RightUpLeg 10.781510 -6.657664 -4.091400
RightLeg -5.596059 -0.000000 0.000000
RightFoot -12.411629 -13.798401 16.013350
RightToeBase 15.832967 -0.000000 -0.000000
LeftUpLeg 9.125011 0.923776 1.379488
LeftLeg -2.702856 -0.000000 0.000000
LeftFoot -10.307693 14.516426 -17.282800
LeftToeBase 9.709694 -0.000000 -0.000000
Spine 1.632099 21.788029 -0.233593
RightShoulder 13.787149 5.796834 -29.968738
RightArm 80.429121 -0.270369 100.009246
RightForeArm 86.613652 -0.000000 146.536770
RightHand 13.701169 -0.000000 32.268900
RightHandThumb1 -24.326973 -0.000000 -32.862282
LeftShoulder -0.593421 35.194930 3.739570
LeftArm 51.984793 27.127152 -54.294493
LeftForeArm 23.780928 -0.000000 18.029720
LeftHand -13.175104 -0.000000 -8.829384
LeftHandThumb1 -26.253704 0.000000 33.147579
Head -6.826369 10.133012 -23.240616
422
root 2.261990 37.015898 2.526485 -2.391861 -2.922864 1.763204
RightUpLeg 10.776249 -6.670918 -4.080367
RightLeg -5.578363 -0.000000 0.000000
RightFoot -12.413214 -13.845589 15.972556
RightToeBase 15.816715 -0.000000 -0.000000
LeftUpLeg 9.113145 0.946671 1.393328
LeftLeg -2.699071 -0.000000 0.000000
LeftFoot -10.275027 14.467841 -17.247315
LeftToeBase 9.703983 -0.000000 -0.000000
Spine 1.657345 21.749968 -0.256841
RightShoulder 13.767513 5.872036 -30.031622
RightArm 80.414732 -0.051922 100.303321
RightForeArm 86.731831 0.000000 146.529773
RightHand 13.721488 -0.000000 32.027205
RightHandThumb1 -24.326973 -0.000000 -32.862282
LeftShoulder -0.571303 35.141080 3.752734
LeftArm 51.980530 27.160185 -54.250647
LeftForeArm 23.807405 -0.000000 17.995954
LeftHand -13.174357 -0.000000 -8.917099
LeftHandThumb1 -26.253704 0.000000 33.147579
Head -6.939553 10.036859 -23.293136
423
root 2.260025 37.016145 2.529950 -2.409909 -2.872548 1.757858
RightUpLeg 10.805203 -6.683740 -4.073369
RightLeg -5.569646 -0.000000 0.000000
RightFoot -12.439370 -13.874412 15.993189
RightToeBase 15.860837 -0.000000 -0.000000
LeftUpLeg 9.137202 0.957264 1.406655
LeftLeg -2.715203 -0.000000 0.000000
LeftFoot -10.253855 14.416767 -17.249668
LeftToeBase 9.694624 -0.000000 -0.000000
Spine 1.694703 21.717081 -0.272008
RightShoulder 13.738180 5.878815 -30.115751
RightArm 80.482969 0.183464 100.632374
RightForeArm 86.975939 -0.000000 146.515040
RightHand 13.702697 0.000000 31.954809
RightHandThumb1 -24.326973 -0.000000 -32.862282
LeftShoulder -0.537613 35.123713 3.774626
LeftArm 52.000099 27.170664 -54.200377
LeftForeArm 23.888407 -0.000000 17.977472
LeftHand -13.332166 0.000000 -8.812632
LeftHandThumb1 -26.253704 0.000000 33.147579
Head -7.040493 9.931840 -23.318829
424
root 2.259822 37.016858 2.529125 -2.395924 -2.833476 1.757150
RightUpLeg 10.792631 -6.740012 -4.075210
RightLeg -5.564172 -0.000000 0.000000
RightFoot -12.435189 -13.852715 16.026511
RightToeBase 15.848282 -0.000000 -0.000000
LeftUpLeg 9.116824 0.972799 1.412546
LeftLeg -2.717860 -0.000000 0.000000
LeftFoot -10.228074 14.377628 -17.241501
LeftToeBase 9.673672 -0.000000 -0.000000
Spine 1.703344 21.712382 -0.307582
RightShoulder 13.729410 5.931071 -30.166189
RightArm 80.537673 0.482785 100.908655
RightForeArm 87.099240 0.000000 146.527845
RightHand 13.944365 -0.000000 31.756856
RightHandThumb1 -24.326973 -0.000000 -32.862282
LeftShoulder -0.492996 35.086837 3.808358
LeftArm 51.980636 27.171305 -54.199683
LeftForeArm 23.802314 -0.000000 17.967577
LeftHand -13.154144 -0.000000 -9.122975
LeftHandThumb1 -26.253704 0.000000 33.147579
Head -7.130004 9.829976 -23.346782
425
root 2.258514 37.016606 2.530048 -2.376096 -2.793795 1.754906
RightUpLeg 10.782012 -6.808860 -4.077779
RightLeg -5.559578 -0.000000 0.000000
RightFoot -12.428745 -13.807625 16.033547
RightToeBase 15.854700 -0.000000 -0.000000
LeftUpLeg 9.093689 1.002241 1.422967
LeftLeg -2.720170 -0.000000 0.000000
LeftFoot -10.208596 14.318494 -17.224987
LeftToeBase 9.715867 -0.000000 -0.000000
Spine 1.693414 21.706696 -0.348045
RightShoulder 13.690169 6.016597 -30.242303
RightArm 80.511642 0.775194 101.336489
RightForeArm 87.190601 -0.000000 146.436990
RightHand 13.926381 -0.000000 31.637789
RightHandThumb1 -24.326973 -0.000000 -32.862282
LeftShoulder -0.482234 35.049644 3.822276
LeftArm 51.974058 27.193395 -54.163057
LeftForeArm 23.783650 0.000000 17.973582
LeftHand -13.093150 -0.000000 -9.243845
LeftHandThumb1 -26.253704 0.000000 33.147579
Head -7.193811 9.710849 -23.364497
426
root 2.255746 37.016814 2.528821 -2.329646 -2.755732 1.744110
RightUpLeg 10.737238 -6.867862 -4.061170
RightLeg -5.554820 -0.000000 0.000000
RightFoot -12.421882 -13.803089 16.019283
RightToeBase 15.828976 -0.000000 -0.000000
LeftUpLeg 9.038264 1.024413 1.444174
LeftLeg -2.716221 -0.000000 0.000000
LeftFoot -10.192040 14.267151 -17.195459
LeftToeBase 9.713590 -0.000000 -0.000000
Spine 1.643073 21.703707 -0.399248
RightShoulder 13.641477 6.107502 -30.306976
RightArm 80.484278 1.089636 101.806590
RightForeArm 87.584513 -0.000000 146.307005
RightHand 13.913777 -0.000000 31.519478
RightHandThumb1 -24.326973 -0.000000 -32.862282
LeftShoulder -0.470487 35.013898 3.837597
LeftArm 51.930128 27.194688 -54.169873
LeftForeArm 23.795425 -0.000000 17.999256
LeftHand -13.068083 -0.000000 -9.336517
LeftHandThumb1 -26.253704 0.000000 33.147579
Head -7.238261 9.643630 -23.372479
427
root 2.255704 37.015997 2.530873 -2.307044 -2.721863 1.752754
RightUpLeg 10.726431 -6.958058 -4.077062
RightLeg -5.559933 -0.000000 0.000000
RightFoot -12.407850 -13.753211 16.020111
RightToeBase 15.782261 -0.000000 -0.000000
LeftUpLeg 9.020977 1.036128 1.440222
LeftLeg -2.731077 -0.000000 0.000000
LeftFoot -10.170303 14.222901 -17.190539
LeftToeBase 9.679652 -0.000000 -0.000000
Spine 1.615985 21.698692 -0.457073
RightShoulder 13.593986 6.214726 -30.391093
RightArm 80.430757 1.427279 102.287018
RightForeArm 87.377497 -0.000000 146.027170
RightHand 14.228082 -0.000000 31.580117
RightHandThumb1 -24.326973 -0.000000 -32.862282
LeftShoulder -0.484982 35.006396 3.833522
LeftArm 51.906846 27.180780 -54.165515
LeftForeArm 23.935667 -0.000000 18.051803
LeftHand -13.187793 -0.000000 -9.209301
LeftHandThumb1 -26.253704 0.000000 33.147579
Head -7.267716 9.542577 -23.388651
